<svg xmlns="http://www.w3.org/2000/svg" width="106" height="24" viewBox="0 0 106 24">
    <g fill="none" fill-rule="evenodd">
        <g fill-rule="nonzero">
            <g>
                <path fill="#FED300" d="M67.638 2.065L83.351 2.081 83.367 17.887 67.654 17.871z" transform="translate(-1436 -599) translate(1436 599) rotate(9.45 75.502 9.976)"/>
                <path fill="#FFF" d="M73.037 5.05c-1.441 1.336-2.637 2.917-3.533 4.67-.592 1.185-1.201 2.669-.643 3.986 1.671 3.933 6.646 1.938 9.19.257 1.644-1.087 3.206-2.497 4.09-4.292.674-1.354 1.549-4.544-.361-5.321-1.735-.708-3.87 1.821-4.856 2.949-.687.773-1.27 1.634-1.735 2.56-2.084 4.179-2.783 9.143-.223 13.283.84 1.354 3.077.228 2.224-1.15-2.524-4.08-1.368-9.929 1.878-13.344.53-.57 1.109-1.096 1.728-1.57.131-.074.255-.16.371-.258.308-.381-.656-.92-.797-.508-.11.318.012.826-.066 1.185-.287 1.316-1.19 2.37-2.162 3.234-1.119 1.007-2.37 1.715-3.74 2.316-.914.401-2.187.833-3.019 0-.078-.094-.149-.194-.212-.3-.21-.29.012.17-.021-.037-.022-.139-.034.078 0-.208.058-.606.336-1.207.619-1.74.755-1.438 1.748-2.736 2.936-3.839 1.178-1.109-.495-2.985-1.668-1.872zM105.886 9.707c0 .191 0 .44-.017.745-.017.304-.029.59-.05.858h-7.602c-.01.462.07.922.233 1.355.144.372.37.706.66.978.296.27.645.476 1.025.601.426.14.873.21 1.322.203.604-.003 1.206-.047 1.804-.132.675-.096 1.343-.24 1.999-.431v2.223c-.295.084-.618.169-.966.23-.348.06-.707.129-1.07.183-.364.054-.732.093-1.104.12-.372.027-.732.04-1.082.04-.804.013-1.605-.116-2.365-.379-.669-.231-1.276-.613-1.776-1.115-.502-.518-.883-1.142-1.115-1.827-.27-.813-.4-1.666-.382-2.523-.01-.876.12-1.748.387-2.582.231-.727.6-1.403 1.087-1.99.468-.55 1.053-.989 1.713-1.281.709-.31 1.475-.463 2.248-.452.741-.016 1.479.113 2.172.38.6.234 1.14.6 1.581 1.07.433.471.763 1.03.968 1.638.226.672.338 1.378.33 2.088zm-2.822-.395c.016-.406-.04-.811-.168-1.197-.105-.314-.273-.602-.495-.846-.203-.22-.453-.389-.73-.497-.285-.11-.588-.168-.894-.169-.646-.02-1.27.235-1.717.705-.448.478-.714 1.146-.8 2.004h4.804zM87.997 2.677L84.733 2.677 84.733.508 90.842.508 90.842 14.505 94.175 14.505 94.175 16.681 84.329 16.681 84.329 14.505 87.997 14.505zM65.464 16.301c-.499.113-1.004.205-1.514.276-.479.067-.962.101-1.445.104-.662.011-1.322-.07-1.962-.24-.505-.137-.973-.388-1.366-.734-.368-.342-.641-.774-.793-1.255-.183-.586-.27-1.2-.256-1.815V6.96H55.02V4.783h3.106V1.807l2.844-.744v3.725h4.494v2.17H60.97v5.475c0 .663.152 1.165.456 1.505.304.34.812.509 1.525.508.446 0 .89-.038 1.33-.115.432-.077.825-.165 1.178-.263l.005 2.233zM49.635 6.205c.556.003 1.11.073 1.649.21.532.13 1.05.31 1.548.54.42.189.81.438 1.159.74.303.272.454.537.454.794-.01.157-.07.306-.168.427-.117.163-.253.312-.405.444-.158.139-.332.256-.52.348-.153.084-.322.131-.495.14-.232-.015-.455-.099-.64-.241l-.777-.535c-.294-.203-.603-.382-.925-.535-.34-.162-.714-.245-1.09-.24-.225-.011-.448.054-.631.186-.163.123-.255.318-.246.523.014.232.117.45.288.608.23.236.484.447.759.63.314.216.673.445 1.068.677.395.232.806.497 1.225.77.423.276.831.572 1.225.889.389.315.745.668 1.065 1.055.311.371.567.786.759 1.232.194.458.292.95.287 1.448.006.42-.076.838-.24 1.226-.153.362-.382.687-.673.95-.308.271-.665.48-1.052.612-.433.15-.888.224-1.346.217-.578.007-1.153-.089-1.698-.283-.49-.172-.943-.435-1.337-.775-.77-.675-1.204-1.658-1.186-2.685 0-.706.126-1.218.376-1.54.251-.321.647-.48 1.188-.48.28-.014.558.053.801.193.177.091.292.272.3.472-.001.1-.018.2-.05.295l-.1.311c-.038.111-.07.224-.096.339-.028.118-.042.24-.042.36 0 .21.049.415.143.602.097.192.229.364.389.508.167.15.359.27.567.355.216.088.448.133.681.132.637 0 .956-.264.956-.794-.01-.443-.185-.866-.49-1.185-.368-.41-.78-.777-1.23-1.094-.494-.358-1.026-.717-1.595-1.077-.551-.344-1.084-.72-1.595-1.122-.464-.362-.878-.785-1.231-1.256-.318-.417-.49-.928-.49-1.453-.003-.41.089-.817.27-1.185.177-.359.428-.676.734-.932.324-.268.695-.474 1.092-.607.44-.147.901-.22 1.365-.214zM43.203 13.96c.18-.18.42-.286.673-.302.122-.001.242.032.346.097.13.083.25.183.354.298.096.144.182.295.257.452.05.106.076.221.077.339-.017.267-.147.514-.358.677-.387.323-.803.61-1.242.858-.901.516-1.883.875-2.904 1.06-.508.092-1.024.139-1.541.139-.614.004-1.225-.08-1.815-.247-.54-.15-1.05-.388-1.515-.703-.434-.297-.812-.67-1.117-1.1-.306-.436-.526-.928-.646-1.448-.039-.157-.106-.307-.197-.44-.078-.075-.185-.112-.293-.102-.243.015-.483-.063-.673-.217-.168-.161-.256-.39-.242-.623-.006-.073.002-.146.024-.216l.023-.24c.015-.227.094-.445.227-.627.146-.14.345-.21.545-.193h.179c.311.015.597-.175.705-.47.243-.545.561-1.055.944-1.513.743-.897 1.722-1.565 2.825-1.93.538-.179 1.1-.27 1.667-.27.562-.005 1.12.082 1.654.258.486.158.942.4 1.346.715.37.29.678.654.904 1.07.22.405.336.86.336 1.322.012.624-.261 1.22-.74 1.617-.258.216-.551.385-.867.5-.37.136-.759.22-1.152.252l-4.146.421c-.14-.006-.277.037-.389.12-.098.078-.153.198-.148.324.005.222.087.435.232.603.174.206.385.379.621.508.282.158.584.277.897.355.341.089.692.133 1.045.132.355-.001.71-.035 1.058-.101.362-.07.718-.169 1.065-.293.355-.13.7-.284 1.033-.464.333-.178.65-.385.948-.618zm-2.666-3.102c.119-.023.227-.082.312-.17.086-.09.133-.212.13-.338 0-.125-.047-.246-.13-.339-.102-.114-.223-.21-.359-.28-.166-.09-.343-.158-.526-.2-.208-.049-.42-.073-.633-.072-.341.001-.681.05-1.01.144-.324.089-.637.216-.932.38-.248.133-.475.305-.673.508-.155.145-.25.345-.262.558 0 .185.111.276.336.276.135 0 .354-.015.657-.047.302-.032.637-.07 1.01-.114.371-.044.736-.094 1.11-.15.373-.056.693-.109.97-.156zM33.276 2.878c-.39-.119-.786-.209-1.188-.269-.465-.073-.935-.11-1.405-.108-.309-.003-.615.041-.91.132-.271.081-.52.223-.729.415-.214.202-.38.45-.485.726-.123.343-.18.706-.168 1.07v1.874h4.543v2.176h-4.543v7.788h-2.806V8.894h-3.357V6.718h3.357V4.956c-.018-.725.104-1.447.358-2.125.216-.559.562-1.057 1.01-1.453.457-.39.995-.674 1.574-.831.672-.182 1.365-.27 2.06-.263.478-.001.955.031 1.428.097.449.065.868.144 1.257.235l.004 2.262zM15.44 7.223h-3.265V5.047h6.11v9.458h3.334v2.176h-9.841v-2.176h3.664l-.001-7.282zm3.068-5.36c.002.243-.045.484-.136.709-.084.216-.21.413-.369.58-.165.166-.36.298-.574.39-.226.096-.47.145-.716.142-.488.005-.958-.186-1.304-.531-.164-.166-.293-.363-.38-.58-.095-.224-.145-.466-.145-.71-.002-.244.044-.485.136-.71.088-.218.217-.416.38-.584.166-.172.365-.308.584-.4.229-.097.475-.146.724-.144.487-.004.956.193 1.295.546.164.168.294.366.382.584.087.225.129.466.123.707zM.071 16.681L.071 1.715 2.916 1.715 2.916 14.265 9.197 14.265 9.197 16.681z" transform="translate(-1436 -599) translate(1436 599)"/>
            </g>
        </g>
    </g>
</svg>
